<svg id="Layer_1" data-name="Layer 1" xmlns="http://www.w3.org/2000/svg" viewBox="0 0 37.69 45.17"><defs><style>.cls-1{fill:#fff;}</style></defs><path class="cls-1" d="M3.19,45.09a3.18,3.18,0,0,1-1,.16,2.12,2.12,0,0,1-1.61-.57A2,2,0,0,1,0,43.27a2.1,2.1,0,0,1,.59-1.49,2.12,2.12,0,0,1,1.63-.63,2.78,2.78,0,0,1,.72.09l-.08.5a3.59,3.59,0,0,0-.81-.12A1.4,1.4,0,0,0,1,42.07a1.57,1.57,0,0,0-.4,1.1A1.7,1.7,0,0,0,1,44.34a1.63,1.63,0,0,0,1.27.5,3.54,3.54,0,0,0,.45-.05,4.1,4.1,0,0,1,0-.74,5.34,5.34,0,0,0-.05-.69h.56c0,.27,0,.55,0,.85,0,.13,0,.42,0,.88"/><path class="cls-1" d="M6,45.17H5.41c0-.66,0-1.35,0-2.08s0-1.35,0-1.88H6c0,.55,0,1.18,0,1.88s0,1.42,0,2.08"/><path class="cls-1" d="M11.27,45.09a3.17,3.17,0,0,1-1,.16,2.15,2.15,0,0,1-1.62-.57,2,2,0,0,1-.54-1.41,2.09,2.09,0,0,1,2.23-2.12,2.71,2.71,0,0,1,.71.09l-.07.5a3.75,3.75,0,0,0-.81-.12A1.42,1.42,0,0,0,9,42.07a1.61,1.61,0,0,0-.39,1.1,1.7,1.7,0,0,0,.45,1.17,1.63,1.63,0,0,0,1.27.5,3.25,3.25,0,0,0,.44-.05,5.27,5.27,0,0,1-.05-.74,5.32,5.32,0,0,0,0-.69h.55c0,.27,0,.55,0,.85,0,.13,0,.42,0,.88"/><path class="cls-1" d="M16.73,45.17h-.64a7,7,0,0,0-.38-1.28H14a6.56,6.56,0,0,0-.38,1.28H13a19.82,19.82,0,0,1,.78-2,14.07,14.07,0,0,0,.79-2h.7a15.07,15.07,0,0,0,.75,2,15.7,15.7,0,0,1,.75,2m-1.16-1.68c-.48-1.19-.72-1.83-.72-1.9h0c0,.06-.25.69-.74,1.9Z"/><path class="cls-1" d="M23.72,41.21l0,.42c-.4,0-.81,0-1.24,0,0,.39,0,.89,0,1.49s0,1.35,0,2.08h-.55c0-.69,0-1.39,0-2.08s0-1.09,0-1.49l-1.26,0v-.43Z"/><path class="cls-1" d="M28.08,44.71l0,.46H25.6c0-.63,0-1.32,0-2.08s0-1.35,0-1.88h2.31l0,.45c-.56,0-1.15,0-1.77,0,0,.32,0,.74,0,1.28.54,0,1,0,1.45,0v.45l-1.45,0c0,.52,0,1,0,1.46.68,0,1.32,0,1.93,0"/><path class="cls-1" d="M32.78,44.68l0,.46a3,3,0,0,1-.81.11,2,2,0,0,1-1.58-.57,2,2,0,0,1-.53-1.41,2.13,2.13,0,0,1,.59-1.49A2.06,2.06,0,0,1,32,41.15a2.45,2.45,0,0,1,.58.08l-.08.49a2,2,0,0,0-.63-.11,1.4,1.4,0,0,0-1.12.45,1.73,1.73,0,0,0-.38,1.12,1.65,1.65,0,0,0,.44,1.15,1.56,1.56,0,0,0,1.21.48,2.86,2.86,0,0,0,.77-.13"/><path class="cls-1" d="M37.69,45.17h-.58q0-1.05,0-1.89H35.31c0,.45,0,1.08,0,1.89h-.58c0-.74,0-1.44,0-2.08s0-1.31,0-1.88h.58c0,.57,0,1.14,0,1.69h1.83c0-.44,0-1,0-1.69h.58c0,.56,0,1.19,0,1.88s0,1.45,0,2.08"/><polygon class="cls-1" points="22.96 34.44 3.26 34.44 3.26 3.26 14.74 3.26 14.74 0 0 0 0 37.7 26.22 37.7 26.22 26.22 31.96 26.22 31.96 22.96 22.96 22.96 22.96 34.44"/><rect class="cls-1" x="11.75" y="11.74" width="2.74" height="14.22"/><polygon class="cls-1" points="22.96 5.74 22.96 9 34.44 9 34.44 37.7 37.7 37.7 37.7 5.74 22.96 5.74"/><polygon class="cls-1" points="22.97 14.75 28.7 14.75 28.7 17.22 17.18 17.22 17.18 28.7 9 28.7 9 9 20.48 9 20.48 5.74 5.74 5.74 5.74 31.96 20.43 31.96 20.43 20.48 31.96 20.48 31.96 11.42 22.95 11.42 22.97 14.75"/></svg>